<?xml version="1.0" encoding="UTF-8" standalone="no"?>
<!DOCTYPE svg PUBLIC "-//W3C//DTD SVG 1.1//EN" "http://www.w3.org/Graphics/SVG/1.1/DTD/svg11.dtd">
<svg width="100%" height="100%" viewBox="0 0 169 120" version="1.1" xmlns="http://www.w3.org/2000/svg" xmlns:xlink="http://www.w3.org/1999/xlink" xml:space="preserve" style="fill-rule:evenodd;clip-rule:evenodd;stroke-linejoin:round;stroke-miterlimit:1.41421;">
    <g id="Calque-1" transform="matrix(0.882554,0,0,0.882554,-286.925,-200.102)">
        <path d="M333.367,336.237L329.318,336.237L329.318,324.089L325.107,324.089L325.107,320.658L337.579,320.658L337.579,324.089L333.367,324.089L333.367,336.237Z" style="fill:rgb(0,149,152);fill-rule:nonzero;"/>
        <path d="M342.462,328.55C342.078,328.55 341.738,328.616 341.441,328.746C341.143,328.879 340.892,329.05 340.685,329.264C340.481,329.475 340.321,329.727 340.21,330.017C340.101,330.307 340.046,330.615 340.046,330.947C340.046,331.623 340.255,332.186 340.675,332.64C341.094,333.094 341.69,333.322 342.462,333.322C343.234,333.322 343.83,333.094 344.249,332.64C344.671,332.186 344.88,331.623 344.88,330.947C344.88,330.615 344.827,330.307 344.714,330.017C344.604,329.727 344.447,329.475 344.239,329.264C344.032,329.05 343.78,328.879 343.485,328.746C343.189,328.616 342.85,328.55 342.462,328.55M342.462,325.287C343.317,325.287 344.129,325.409 344.899,325.658C345.672,325.905 346.351,326.271 346.936,326.754C347.518,327.235 347.984,327.827 348.33,328.531C348.674,329.233 348.847,330.038 348.847,330.947C348.847,331.842 348.674,332.64 348.33,333.342C347.984,334.045 347.518,334.639 346.936,335.119C346.351,335.603 345.672,335.967 344.899,336.214C344.129,336.462 343.317,336.588 342.462,336.588C341.61,336.588 340.8,336.462 340.035,336.214C339.27,335.967 338.592,335.603 338.001,335.119C337.408,334.639 336.941,334.049 336.595,333.352C336.249,332.657 336.08,331.856 336.08,330.947C336.08,330.038 336.249,329.233 336.595,328.531C336.941,327.827 337.405,327.235 337.989,326.754C338.573,326.271 339.254,325.905 340.025,325.658C340.795,325.409 341.61,325.287 342.462,325.287" style="fill:rgb(0,149,152);fill-rule:nonzero;"/>
        <path d="M354.238,325.638L354.238,331.299C354.238,331.629 354.263,331.935 354.31,332.217C354.359,332.501 354.451,332.744 354.589,332.951C354.726,333.159 354.921,333.317 355.167,333.426C355.416,333.537 355.733,333.593 356.119,333.593C356.503,333.593 356.82,333.537 357.069,333.426C357.317,333.317 357.508,333.159 357.646,332.951C357.783,332.744 357.877,332.501 357.925,332.217C357.975,331.935 357.996,331.629 357.996,331.299L357.996,325.638L361.758,325.638L361.758,332.022C361.758,332.891 361.614,333.616 361.324,334.202C361.035,334.787 360.635,335.255 360.127,335.606C359.615,335.957 359.021,336.207 358.339,336.361C357.656,336.513 356.917,336.588 356.119,336.588C355.319,336.588 354.577,336.513 353.888,336.361C353.198,336.207 352.602,335.957 352.101,335.606C351.598,335.255 351.202,334.787 350.911,334.202C350.624,333.616 350.479,332.891 350.479,332.022L350.479,325.638L354.238,325.638Z" style="fill:rgb(0,149,152);fill-rule:nonzero;"/>
        <path d="M368.266,336.237L364.506,336.237L364.506,328.736L363.286,328.736L363.286,325.637L364.506,325.637L364.506,322.456L368.266,322.456L368.266,325.637L370.394,325.637L370.394,328.736L368.266,328.736L368.266,336.237Z" style="fill:rgb(0,149,152);fill-rule:nonzero;"/>
        <path d="M378.988,329.396C378.89,328.886 378.64,328.481 378.233,328.178C377.826,327.876 377.369,327.723 376.86,327.723C376.308,327.723 375.827,327.865 375.412,328.145C374.998,328.43 374.738,328.845 374.63,329.396L378.988,329.396ZM382.479,331.566L374.567,331.566C374.567,332.337 374.762,332.923 375.155,333.322C375.548,333.722 376.137,333.922 376.92,333.922C377.321,333.922 377.668,333.851 377.964,333.704C378.26,333.559 378.512,333.309 378.719,332.95L382.335,332.95C382.183,333.571 381.933,334.113 381.58,334.572C381.229,335.034 380.809,335.413 380.321,335.709C379.83,336.004 379.297,336.226 378.719,336.369C378.14,336.514 377.548,336.588 376.941,336.588C376.06,336.588 375.244,336.462 374.496,336.213C373.744,335.967 373.096,335.605 372.552,335.13C372.008,334.655 371.582,334.065 371.272,333.363C370.961,332.66 370.807,331.855 370.807,330.946C370.807,330.065 370.952,329.273 371.239,328.57C371.53,327.868 371.932,327.277 372.449,326.794C372.966,326.313 373.583,325.938 374.297,325.677C375.015,325.418 375.806,325.287 376.675,325.287C377.596,325.287 378.414,325.425 379.134,325.7C379.848,325.975 380.454,326.366 380.949,326.877C381.445,327.387 381.825,328.003 382.086,328.727C382.348,329.448 382.479,330.265 382.479,331.173L382.479,331.566Z" style="fill:rgb(0,149,152);fill-rule:nonzero;"/>
        <path d="M393.944,325.638L393.944,331.299C393.944,331.629 393.968,331.935 394.016,332.217C394.066,332.501 394.159,332.744 394.296,332.951C394.432,333.159 394.626,333.317 394.873,333.426C395.122,333.537 395.438,333.593 395.826,333.593C396.211,333.593 396.527,333.537 396.775,333.426C397.022,333.317 397.215,333.159 397.354,332.951C397.491,332.744 397.584,332.501 397.633,332.217C397.68,331.935 397.705,331.629 397.705,331.299L397.705,325.638L401.465,325.638L401.465,332.022C401.465,332.891 401.321,333.616 401.031,334.202C400.742,334.787 400.342,335.255 399.831,335.606C399.323,335.957 398.727,336.207 398.045,336.361C397.364,336.513 396.624,336.588 395.826,336.588C395.026,336.588 394.281,336.513 393.594,336.361C392.904,336.207 392.309,335.957 391.806,335.606C391.304,335.255 390.909,334.787 390.619,334.202C390.331,333.616 390.187,332.891 390.187,332.022L390.187,325.638L393.944,325.638Z" style="fill:rgb(0,149,152);fill-rule:nonzero;"/>
        <path d="M407.623,327L407.663,327C408.103,326.353 408.593,325.905 409.13,325.659C409.668,325.408 410.307,325.287 411.05,325.287C411.765,325.287 412.377,325.392 412.88,325.606C413.383,325.818 413.791,326.121 414.107,326.506C414.425,326.891 414.66,327.355 414.809,327.9C414.962,328.444 415.037,329.04 415.037,329.688L415.037,336.237L411.278,336.237L411.278,331.071L411.278,330.224C411.278,329.893 411.23,329.584 411.133,329.293C411.037,329.006 410.871,328.763 410.638,328.571C410.403,328.379 410.053,328.282 409.584,328.282C409.199,328.282 408.882,328.347 408.634,328.479C408.386,328.609 408.186,328.789 408.034,329.016C407.882,329.242 407.775,329.504 407.716,329.799C407.653,330.096 407.623,330.411 407.623,330.741L407.623,336.237L403.862,336.237L403.862,325.637L407.623,325.637L407.623,327Z" style="fill:rgb(0,149,152);fill-rule:nonzero;"/>
        <path d="M424.912,329.396C424.814,328.886 424.564,328.481 424.16,328.178C423.753,327.876 423.294,327.723 422.785,327.723C422.234,327.723 421.751,327.865 421.338,328.145C420.926,328.43 420.663,328.845 420.554,329.396L424.912,329.396ZM428.405,331.566L420.494,331.566C420.494,332.337 420.687,332.923 421.081,333.322C421.473,333.722 422.064,333.922 422.847,333.922C423.248,333.922 423.595,333.851 423.889,333.704C424.186,333.559 424.436,333.309 424.645,332.95L428.26,332.95C428.109,333.571 427.859,334.113 427.504,334.572C427.155,335.034 426.734,335.413 426.246,335.709C425.756,336.004 425.222,336.226 424.645,336.369C424.066,336.514 423.474,336.588 422.867,336.588C421.984,336.588 421.169,336.462 420.422,336.213C419.669,335.967 419.021,335.605 418.477,335.13C417.934,334.655 417.506,334.065 417.194,333.363C416.886,332.66 416.732,331.855 416.732,330.946C416.732,330.065 416.877,329.273 417.164,328.57C417.455,327.868 417.859,327.277 418.373,326.794C418.889,326.313 419.508,325.938 420.223,325.677C420.939,325.418 421.73,325.287 422.597,325.287C423.522,325.287 424.34,325.425 425.059,325.7C425.773,325.975 426.379,326.366 426.873,326.877C427.371,327.387 427.751,328.003 428.011,328.727C428.273,329.448 428.405,330.265 428.405,331.173L428.405,331.566Z" style="fill:rgb(0,149,152);fill-rule:nonzero;"/>
        <path d="M442.103,328.55C441.719,328.55 441.374,328.616 441.081,328.746C440.782,328.879 440.531,329.05 440.325,329.264C440.118,329.475 439.96,329.727 439.85,330.017C439.738,330.307 439.684,330.615 439.684,330.947C439.684,331.623 439.895,332.186 440.315,332.64C440.735,333.094 441.33,333.322 442.103,333.322C442.873,333.322 443.468,333.094 443.889,332.64C444.309,332.186 444.519,331.623 444.519,330.947C444.519,330.615 444.464,330.307 444.355,330.017C444.241,329.727 444.086,329.475 443.88,329.264C443.673,329.05 443.42,328.879 443.125,328.746C442.829,328.616 442.488,328.55 442.103,328.55M436.049,320.659L439.809,320.659L439.809,326.67C440.209,326.204 440.701,325.853 441.286,325.626C441.871,325.399 442.474,325.287 443.093,325.287C443.88,325.287 444.599,325.439 445.254,325.741C445.906,326.043 446.465,326.453 446.928,326.97C447.388,327.487 447.75,328.085 448.011,328.767C448.272,329.448 448.402,330.168 448.402,330.927C448.402,331.698 448.272,332.424 448.011,333.105C447.75,333.787 447.385,334.386 446.915,334.904C446.447,335.419 445.883,335.829 445.221,336.131C444.561,336.436 443.836,336.588 443.052,336.588C442.433,336.588 441.83,336.462 441.245,336.214C440.659,335.967 440.194,335.581 439.85,335.057L439.809,335.057L439.809,336.237L436.049,336.237L436.049,320.659Z" style="fill:rgb(0,149,152);fill-rule:nonzero;"/>
        <path d="M483.691,333.322C484.075,333.322 484.416,333.257 484.711,333.128C485.005,332.995 485.259,332.824 485.466,332.611C485.673,332.397 485.83,332.146 485.94,331.858C486.052,331.566 486.105,331.258 486.105,330.927C486.105,330.252 485.896,329.687 485.475,329.233C485.057,328.778 484.461,328.55 483.691,328.55C482.919,328.55 482.323,328.778 481.902,329.233C481.48,329.687 481.271,330.252 481.271,330.927C481.271,331.258 481.326,331.566 481.436,331.858C481.548,332.146 481.704,332.397 481.911,332.611C482.119,332.824 482.371,332.995 482.666,333.128C482.963,333.257 483.304,333.322 483.691,333.322M489.742,341.215L485.982,341.215L485.982,335.203C485.584,335.67 485.09,336.02 484.506,336.246C483.92,336.475 483.32,336.588 482.699,336.588C481.911,336.588 481.192,336.436 480.539,336.134C479.886,335.829 479.328,335.422 478.865,334.904C478.405,334.386 478.043,333.787 477.781,333.106C477.519,332.424 477.387,331.704 477.387,330.947C477.387,330.176 477.519,329.449 477.781,328.77C478.043,328.085 478.407,327.487 478.873,326.97C479.344,326.455 479.907,326.043 480.569,325.741C481.23,325.439 481.954,325.287 482.739,325.287C483.359,325.287 483.962,325.411 484.547,325.659C485.131,325.905 485.596,326.293 485.94,326.815L485.982,326.815L485.982,325.638L489.742,325.638L489.742,341.215Z" style="fill:rgb(0,149,152);fill-rule:nonzero;"/>
        <path d="M455.799,328.55C455.412,328.55 455.072,328.616 454.777,328.746C454.48,328.879 454.229,329.05 454.022,329.264C453.815,329.475 453.659,329.727 453.546,330.017C453.436,330.307 453.381,330.615 453.381,330.947C453.381,331.623 453.59,332.186 454.011,332.64C454.431,333.094 455.027,333.322 455.799,333.322C456.569,333.322 457.167,333.094 457.585,332.64C458.006,332.186 458.217,331.623 458.217,330.947C458.217,330.615 458.161,330.307 458.052,330.017C457.94,329.727 457.783,329.475 457.576,329.264C457.368,329.05 457.118,328.879 456.819,328.746C456.523,328.616 456.183,328.55 455.799,328.55M461.853,336.237L458.092,336.237L458.092,335.057L458.052,335.057C457.721,335.581 457.258,335.967 456.666,336.214C456.074,336.462 455.468,336.588 454.85,336.588C454.061,336.588 453.343,336.436 452.689,336.131C452.034,335.829 451.471,335.419 450.995,334.904C450.52,334.386 450.151,333.784 449.89,333.094C449.629,332.405 449.498,331.684 449.498,330.927C449.498,330.168 449.629,329.448 449.89,328.767C450.151,328.085 450.513,327.487 450.973,326.97C451.437,326.453 451.995,326.043 452.648,325.741C453.301,325.439 454.022,325.287 454.809,325.287C455.427,325.287 456.029,325.399 456.615,325.626C457.199,325.853 457.693,326.204 458.092,326.67L458.092,325.637L461.853,325.637L461.853,336.237Z" style="fill:rgb(0,149,152);fill-rule:nonzero;"/>
        <path d="M468.11,327L468.152,327C468.595,326.353 469.081,325.905 469.62,325.659C470.155,325.408 470.797,325.287 471.541,325.287C472.255,325.287 472.866,325.392 473.368,325.606C473.87,325.818 474.28,326.121 474.599,326.506C474.915,326.891 475.147,327.355 475.3,327.9C475.451,328.444 475.527,329.04 475.527,329.688L475.527,336.237L471.767,336.237L471.767,331.071L471.767,330.224C471.767,329.893 471.72,329.584 471.623,329.293C471.528,329.006 471.362,328.763 471.126,328.571C470.893,328.379 470.54,328.282 470.073,328.282C469.687,328.282 469.372,328.347 469.123,328.479C468.875,328.609 468.675,328.789 468.523,329.016C468.372,329.242 468.266,329.504 468.203,329.799C468.143,330.096 468.11,330.411 468.11,330.741L468.11,336.237L464.353,336.237L464.353,325.637L468.11,325.637L468.11,327Z" style="fill:rgb(0,149,152);fill-rule:nonzero;"/>
        <path d="M495.797,325.638L495.797,331.299C495.797,331.629 495.819,331.935 495.869,332.217C495.916,332.501 496.008,332.744 496.145,332.951C496.285,333.159 496.478,333.317 496.726,333.426C496.973,333.537 497.288,333.593 497.675,333.593C498.061,333.593 498.379,333.537 498.627,333.426C498.873,333.317 499.067,333.159 499.204,332.951C499.342,332.744 499.434,332.501 499.485,332.217C499.531,331.935 499.555,331.629 499.555,331.299L499.555,325.638L503.316,325.638L503.316,332.022C503.316,332.891 503.172,333.616 502.881,334.202C502.592,334.787 502.194,335.255 501.683,335.606C501.175,335.957 500.579,336.207 499.895,336.361C499.215,336.513 498.475,336.588 497.675,336.588C496.877,336.588 496.133,336.513 495.444,336.361C494.754,336.207 494.16,335.957 493.66,335.606C493.154,335.255 492.759,334.787 492.47,334.202C492.181,333.616 492.038,332.891 492.038,332.022L492.038,325.638L495.797,325.638Z" style="fill:rgb(0,149,152);fill-rule:nonzero;"/>
        <path d="M513.108,329.396C513.013,328.886 512.762,328.481 512.355,328.178C511.947,327.876 511.49,327.723 510.979,327.723C510.429,327.723 509.948,327.865 509.533,328.145C509.12,328.43 508.858,328.845 508.749,329.396L513.108,329.396ZM516.599,331.566L508.688,331.566C508.688,332.337 508.884,332.923 509.275,333.322C509.668,333.722 510.257,333.922 511.042,333.922C511.443,333.922 511.789,333.851 512.086,333.704C512.381,333.559 512.632,333.309 512.84,332.95L516.457,332.95C516.304,333.571 516.052,334.113 515.7,334.572C515.35,335.034 514.931,335.413 514.442,335.709C513.951,336.004 513.418,336.226 512.84,336.369C512.261,336.514 511.668,336.588 511.063,336.588C510.182,336.588 509.365,336.462 508.615,336.213C507.862,335.967 507.215,335.605 506.672,335.13C506.129,334.655 505.702,334.065 505.394,333.363C505.082,332.66 504.925,331.855 504.925,330.946C504.925,330.065 505.073,329.273 505.36,328.57C505.651,327.868 506.054,327.277 506.569,326.794C507.087,326.313 507.701,325.938 508.419,325.677C509.135,325.418 509.926,325.287 510.793,325.287C511.716,325.287 512.536,325.425 513.251,325.7C513.969,325.975 514.575,326.366 515.069,326.877C515.567,327.387 515.945,328.003 516.209,328.727C516.469,329.448 516.599,330.265 516.599,331.173L516.599,331.566Z" style="fill:rgb(0,149,152);fill-rule:nonzero;"/>
        <path d="M374.733,354.613C375.028,354.481 375.28,354.309 375.488,354.096C375.694,353.883 375.852,353.631 375.965,353.342C376.072,353.052 376.129,352.744 376.129,352.413C376.129,351.737 375.918,351.173 375.497,350.719C375.076,350.265 374.483,350.037 373.711,350.037C372.939,350.037 372.344,350.265 371.923,350.719C371.505,351.173 371.293,351.737 371.293,352.413C371.293,352.744 371.35,353.052 371.459,353.342C371.569,353.631 371.728,353.883 371.934,354.096C372.141,354.309 372.392,354.481 372.688,354.613C372.984,354.743 373.325,354.809 373.711,354.809C374.097,354.809 374.436,354.743 374.733,354.613M367.658,347.122L371.418,347.122L371.418,348.302L371.459,348.302C371.804,347.777 372.269,347.392 372.852,347.146C373.439,346.897 374.04,346.771 374.66,346.771C375.447,346.771 376.168,346.924 376.831,347.228C377.491,347.531 378.055,347.941 378.525,348.455C378.993,348.973 379.358,349.572 379.619,350.254C379.881,350.934 380.012,351.66 380.012,352.432C380.012,353.191 379.881,353.911 379.619,354.593C379.358,355.275 378.996,355.872 378.536,356.39C378.073,356.907 377.516,357.316 376.861,357.618C376.207,357.921 375.488,358.073 374.702,358.073C374.082,358.073 373.481,357.96 372.894,357.733C372.308,357.506 371.818,357.156 371.418,356.689L371.418,362.7L367.658,362.7L367.658,347.122Z" style="fill:rgb(0,149,152);fill-rule:nonzero;"/>
        <path d="M373.711,350.037C373.325,350.037 372.984,350.102 372.689,350.231C372.392,350.364 372.141,350.535 371.934,350.748C371.728,350.963 371.57,351.213 371.459,351.504C371.35,351.791 371.293,352.102 371.293,352.432C371.293,353.107 371.505,353.673 371.924,354.126C372.343,354.581 372.939,354.809 373.711,354.809C374.483,354.809 375.076,354.581 375.497,354.126C375.918,353.673 376.129,353.107 376.129,352.432C376.129,352.102 376.072,351.791 375.965,351.504C375.852,351.213 375.695,350.963 375.489,350.748C375.281,350.535 375.028,350.364 374.733,350.231C374.436,350.102 374.097,350.037 373.711,350.037M371.418,348.321L371.459,348.321C371.804,347.798 372.269,347.409 372.852,347.152C373.439,346.901 374.04,346.771 374.661,346.771C375.447,346.771 376.169,346.927 376.831,347.236C377.491,347.547 378.055,347.961 378.525,348.476C378.994,348.992 379.358,349.595 379.619,350.284C379.881,350.974 380.012,351.696 380.012,352.453C380.012,353.224 379.881,353.947 379.619,354.621C379.358,355.296 378.997,355.892 378.536,356.41C378.073,356.926 377.515,357.331 376.861,357.629C376.207,357.924 375.489,358.072 374.702,358.072C374.082,358.072 373.481,357.96 372.895,357.742C372.309,357.523 371.818,357.179 371.418,356.708L371.418,362.7L367.658,362.7L367.658,347.122L371.418,347.122L371.418,348.321Z" style="fill:rgb(0,149,152);fill-rule:nonzero;"/>
        <path d="M387.468,350.037C387.084,350.037 386.745,350.102 386.449,350.231C386.151,350.364 385.901,350.535 385.694,350.748C385.487,350.963 385.33,351.213 385.218,351.504C385.107,351.791 385.054,352.102 385.054,352.432C385.054,353.107 385.264,353.673 385.685,354.126C386.103,354.581 386.699,354.809 387.468,354.809C388.241,354.809 388.838,354.581 389.257,354.126C389.677,353.673 389.887,353.107 389.887,352.432C389.887,352.102 389.833,351.791 389.722,351.504C389.611,351.213 389.453,350.963 389.247,350.748C389.04,350.535 388.79,350.364 388.493,350.231C388.197,350.102 387.855,350.037 387.468,350.037M387.468,346.771C388.325,346.771 389.137,346.897 389.907,347.144C390.682,347.392 391.358,347.755 391.943,348.24C392.527,348.722 392.993,349.314 393.339,350.015C393.682,350.719 393.854,351.524 393.854,352.432C393.854,353.328 393.682,354.126 393.339,354.828C392.993,355.532 392.527,356.126 391.943,356.605C391.358,357.088 390.682,357.454 389.907,357.701C389.137,357.948 388.325,358.072 387.468,358.072C386.616,358.072 385.806,357.948 385.043,357.701C384.278,357.454 383.601,357.088 383.008,356.605C382.416,356.126 381.947,355.533 381.603,354.839C381.259,354.144 381.088,353.34 381.088,352.432C381.088,351.524 381.259,350.719 381.603,350.015C381.947,349.314 382.412,348.722 382.998,348.24C383.584,347.755 384.261,347.392 385.033,347.144C385.804,346.897 386.616,346.771 387.468,346.771" style="fill:rgb(0,149,152);fill-rule:nonzero;"/>
        <path d="M399.244,347.122L399.244,352.784C399.244,353.114 399.269,353.421 399.318,353.704C399.366,353.987 399.459,354.23 399.596,354.438C399.733,354.644 399.927,354.802 400.176,354.912C400.422,355.022 400.741,355.078 401.126,355.078C401.511,355.078 401.828,355.022 402.074,354.912C402.323,354.802 402.516,354.644 402.653,354.438C402.793,354.23 402.883,353.987 402.932,353.704C402.981,353.421 403.005,353.114 403.005,352.784L403.005,347.122L406.766,347.122L406.766,353.507C406.766,354.375 406.622,355.102 406.331,355.687C406.043,356.274 405.643,356.74 405.132,357.091C404.624,357.444 404.027,357.696 403.347,357.845C402.665,357.997 401.925,358.072 401.126,358.072C400.325,358.072 399.583,357.997 398.895,357.845C398.204,357.696 397.609,357.444 397.107,357.091C396.604,356.74 396.207,356.274 395.92,355.687C395.631,355.102 395.485,354.375 395.485,353.507L395.485,347.122L399.244,347.122Z" style="fill:rgb(0,149,152);fill-rule:nonzero;"/>
        <path d="M412.923,348.859L412.964,348.859C413.322,348.197 413.797,347.718 414.388,347.424C414.981,347.125 415.648,346.978 416.392,346.978L417.116,346.978L417.116,350.593C416.855,350.442 416.597,350.347 416.341,350.304C416.088,350.264 415.815,350.241 415.527,350.241C415.003,350.241 414.572,350.323 414.234,350.491C413.896,350.655 413.633,350.88 413.44,351.162C413.246,351.443 413.113,351.783 413.036,352.173C412.961,352.567 412.923,352.989 412.923,353.443L412.923,357.721L409.162,357.721L409.162,347.121L412.923,347.121L412.923,348.859Z" style="fill:rgb(0,149,152);fill-rule:nonzero;"/>
        <path d="M430.814,352.556L433.332,347.122L437.549,347.122L432.012,357.722L429.615,357.722L424.057,347.122L428.271,347.122L430.814,352.556Z" style="fill:rgb(0,149,152);fill-rule:nonzero;"/>
        <path d="M444.075,350.037C443.689,350.037 443.349,350.102 443.053,350.231C442.756,350.364 442.505,350.535 442.299,350.748C442.093,350.963 441.934,351.213 441.825,351.504C441.714,351.791 441.659,352.102 441.659,352.432C441.659,353.107 441.867,353.673 442.289,354.126C442.707,354.581 443.303,354.809 444.075,354.809C444.848,354.809 445.442,354.581 445.862,354.126C446.282,353.673 446.492,353.107 446.492,352.432C446.492,352.102 446.438,351.791 446.327,351.504C446.216,351.213 446.059,350.963 445.852,350.748C445.645,350.535 445.394,350.364 445.098,350.231C444.801,350.102 444.461,350.037 444.075,350.037M444.075,346.771C444.929,346.771 445.742,346.897 446.512,347.144C447.285,347.392 447.962,347.755 448.549,348.24C449.132,348.722 449.598,349.314 449.942,350.015C450.285,350.719 450.46,351.524 450.46,352.432C450.46,353.328 450.285,354.126 449.942,354.828C449.598,355.532 449.132,356.126 448.549,356.605C447.962,357.088 447.285,357.454 446.512,357.701C445.742,357.948 444.929,358.072 444.075,358.072C443.22,358.072 442.411,357.948 441.647,357.701C440.882,357.454 440.206,357.088 439.612,356.605C439.02,356.126 438.553,355.533 438.208,354.839C437.864,354.144 437.69,353.34 437.69,352.432C437.69,351.524 437.864,350.719 438.208,350.015C438.553,349.314 439.018,348.722 439.602,348.24C440.189,347.755 440.865,347.392 441.637,347.144C442.409,346.897 443.22,346.771 444.075,346.771" style="fill:rgb(0,149,152);fill-rule:nonzero;"/>
        <path d="M455.851,347.122L455.851,352.784C455.851,353.114 455.876,353.421 455.923,353.704C455.971,353.987 456.065,354.23 456.201,354.438C456.341,354.644 456.535,354.802 456.78,354.912C457.031,355.022 457.346,355.078 457.732,355.078C458.117,355.078 458.434,355.022 458.682,354.912C458.93,354.802 459.122,354.644 459.26,354.438C459.399,354.23 459.491,353.987 459.54,353.704C459.587,353.421 459.612,353.114 459.612,352.784L459.612,347.122L463.371,347.122L463.371,353.507C463.371,354.375 463.227,355.102 462.937,355.687C462.648,356.274 462.251,356.74 461.739,357.091C461.229,357.444 460.634,357.696 459.953,357.845C459.272,357.997 458.529,358.072 457.732,358.072C456.932,358.072 456.19,357.997 455.501,357.845C454.812,357.696 454.216,357.444 453.714,357.091C453.21,356.74 452.813,356.274 452.526,355.687C452.237,355.102 452.092,354.375 452.092,353.507L452.092,347.122L455.851,347.122Z" style="fill:rgb(0,149,152);fill-rule:nonzero;"/>
        <path d="M472.772,349.851C472.484,349.699 472.152,349.575 471.78,349.48C471.407,349.382 471.062,349.334 470.746,349.334C470.636,349.334 470.513,349.349 470.375,349.376C470.238,349.404 470.109,349.444 469.992,349.499C469.876,349.556 469.775,349.625 469.693,349.716C469.612,349.807 469.571,349.92 469.571,350.057C469.571,350.236 469.635,350.381 469.765,350.491C469.896,350.602 470.053,350.688 470.23,350.749C470.409,350.812 470.595,350.859 470.788,350.895C470.981,350.927 471.139,350.958 471.264,350.987C471.704,351.07 472.11,351.19 472.484,351.349C472.853,351.508 473.177,351.711 473.453,351.958C473.73,352.205 473.946,352.506 474.104,352.856C474.263,353.207 474.344,353.632 474.344,354.126C474.344,354.829 474.197,355.429 473.908,355.923C473.618,356.42 473.237,356.827 472.762,357.143C472.287,357.461 471.753,357.696 471.16,357.845C470.567,357.996 469.963,358.073 469.343,358.073C468.583,358.073 467.843,357.97 467.122,357.763C466.398,357.556 465.713,357.256 465.065,356.855L466.429,354.229C466.622,354.369 466.842,354.497 467.091,354.622C467.338,354.747 467.592,354.86 467.854,354.964C468.116,355.068 468.38,355.15 468.65,355.211C468.92,355.275 469.17,355.305 469.404,355.305C469.528,355.305 469.659,355.291 469.797,355.263C469.934,355.237 470.062,355.186 470.178,355.118C470.296,355.051 470.391,354.968 470.467,354.872C470.544,354.776 470.581,354.649 470.581,354.497C470.581,354.293 470.513,354.13 470.375,354.014C470.238,353.899 470.059,353.8 469.838,353.724C469.618,353.648 469.366,353.583 469.084,353.528C468.802,353.473 468.515,353.404 468.226,353.321C467.937,353.238 467.651,353.139 467.368,353.022C467.087,352.906 466.836,352.74 466.614,352.526C466.394,352.313 466.214,352.047 466.077,351.731C465.941,351.414 465.871,351.014 465.871,350.533C465.871,349.886 466.006,349.324 466.273,348.85C466.542,348.372 466.897,347.982 467.338,347.671C467.778,347.361 468.278,347.133 468.836,346.989C469.395,346.844 469.963,346.772 470.541,346.772C471.146,346.772 471.742,346.825 472.328,346.927C472.912,347.03 473.482,347.206 474.032,347.454L472.772,349.851Z" style="fill:rgb(0,149,152);fill-rule:nonzero;"/>
        <path d="M443.096,263.662L435.997,245.685L426.739,265.54C423.613,271.784 413.378,273.601 406.215,274.599L407.515,271.94L428.231,232.829L444.384,232.829L455.955,256.542L461.032,267.798L471.483,290.375L464.278,290.354L458.659,290.332C456.297,290.356 453.986,290.19 453.008,287.7L451.014,282.873L447.678,274.722L443.096,263.662Z" style="fill:rgb(0,111,78);fill-rule:nonzero;"/>
        <rect x="367.676" y="296.845" width="106.659" height="9.17" style="fill:rgb(0,111,78);"/>
        <path d="M482.197,226.735L482.197,226.731L477.913,229.006L462.741,236.981C462.741,236.981 457.523,239.807 454.182,240.502L454.206,240.553L454.175,240.523C455.088,243.399 456.037,245.255 456.907,246.727C457.164,247.164 457.534,247.498 457.964,247.749C458.523,248.103 459.181,248.296 459.858,248.315C460.523,248.336 461.206,248.195 461.834,247.882L482.205,236.933L482.205,226.731L482.197,226.735Z" style="fill:rgb(237,28,36);fill-rule:nonzero;"/>
        <path d="M456.038,256.625L443.179,263.745C427.078,272.527 406.099,281.044 387.947,279.523C380.279,278.883 375.658,275.994 376.1,271.096C376.602,265.527 381.435,259.651 389.908,253.775C396.392,249.276 402.065,246.845 405.049,245.793C408.95,244.416 412.292,243.792 415.872,243.629C416.74,243.629 417.538,243.701 418.147,243.884C418.13,243.778 418.111,243.682 418.093,243.579L418.097,243.579C416.472,233.158 413.748,231.754 409.467,231.892C397.446,232.278 382.347,240.591 374.344,250.199C370.045,255.359 367.858,261.55 367.755,265.974C367.6,272.732 370.292,281.936 378.537,286.633C387.701,291.853 400.832,291.51 412.758,288.811C425.569,285.911 436.759,280.382 447.76,274.806L461.115,267.879L482.239,255.753L482.321,242.57L456.038,256.625Z" style="fill:rgb(0,149,152);fill-rule:nonzero;"/>
    </g>
</svg>
