<?xml version="1.0" ?><svg enable-background="new 0 0 40 40" id="Слой_1" version="1.1" viewBox="0 0 40 40" xml:space="preserve" xmlns="http://www.w3.org/2000/svg" xmlns:xlink="http://www.w3.org/1999/xlink"><g><g><path d="M19.1,28.8c-0.3,0-0.5-0.1-0.7-0.3l-8-8c-0.4-0.4-0.4-1,0-1.4l2.5-2.5c0.4-0.4,1-0.4,1.4,0s0.4,1,0,1.4l-1.8,1.8l7.3,7.3    c0.4,0.4,0.4,1,0,1.4C19.6,28.7,19.4,28.8,19.1,28.8z"/></g><g><path d="M17.1,14.8c-0.3,0-0.5-0.1-0.7-0.3c-0.4-0.4-0.4-1,0-1.4l2-2c0.4-0.4,1-0.4,1.4,0s0.4,1,0,1.4l-2,2    C17.6,14.7,17.3,14.8,17.1,14.8z"/></g><g><path d="M25.1,28.8c-0.3,0-0.5-0.1-0.7-0.3l-8-8c-0.4-0.4-0.4-1,0-1.4l8-8c0.4-0.4,1-0.4,1.4,0s0.4,1,0,1.4l-7.3,7.3l7.3,7.3    c0.4,0.4,0.4,1,0,1.4C25.6,28.7,25.3,28.8,25.1,28.8z"/></g></g><g><path d="M20,40C9,40,0,31,0,20S9,0,20,0s20,9,20,20S31,40,20,40z M20,2C10.1,2,2,10.1,2,20s8.1,18,18,18s18-8.1,18-18S29.9,2,20,2z   "/></g></svg>