<?xml version="1.0" encoding="iso-8859-1"?>
<!-- Generator: Adobe Illustrator 18.0.0, SVG Export Plug-In . SVG Version: 6.00 Build 0)  -->
<!DOCTYPE svg PUBLIC "-//W3C//DTD SVG 1.1//EN" "http://www.w3.org/Graphics/SVG/1.1/DTD/svg11.dtd">
<svg version="1.1" id="Capa_1" xmlns="http://www.w3.org/2000/svg" xmlns:xlink="http://www.w3.org/1999/xlink" x="0px" y="0px"
	 viewBox="0 0 385 385" style="enable-background:new 0 0 385 385;" xml:space="preserve">
<g>
	<path d="M192.5,0C86.355,0,0,86.355,0,192.5S86.355,385,192.5,385S385,298.645,385,192.5S298.645,0,192.5,0z M192.5,330
		C116.682,330,55,268.318,55,192.5C55,116.682,116.682,55,192.5,55S330,116.682,330,192.5C330,268.318,268.318,330,192.5,330z"/>
	<path d="M217.411,101.734h-49.821c-2.761,0-5,2.239-5,5v171.531c0,2.761,2.239,5,5,5h49.821c2.761,0,5-2.239,5-5V106.734
		C222.411,103.973,220.172,101.734,217.411,101.734z"/>
</g>
<g>
</g>
<g>
</g>
<g>
</g>
<g>
</g>
<g>
</g>
<g>
</g>
<g>
</g>
<g>
</g>
<g>
</g>
<g>
</g>
<g>
</g>
<g>
</g>
<g>
</g>
<g>
</g>
<g>
</g>
</svg>
