<?xml version="1.0" ?><svg enable-background="new 0 0 40 40" id="Слой_1" version="1.1" viewBox="0 0 40 40" xml:space="preserve" xmlns="http://www.w3.org/2000/svg" xmlns:xlink="http://www.w3.org/1999/xlink"><g><path d="M20,40C9,40,0,31,0,20S9,0,20,0s20,9,20,20S31,40,20,40z M20,2C10.1,2,2,10.1,2,20s8.1,18,18,18s18-8.1,18-18S29.9,2,20,2z   "/></g><g><g><path d="M20.1,28.8c-0.3,0-0.5-0.1-0.7-0.3c-0.4-0.4-0.4-1,0-1.4l7.3-7.3L24.9,18c-0.4-0.4-0.4-1,0-1.4s1-0.4,1.4,0l2.5,2.5    c0.4,0.4,0.4,1,0,1.4l-8,8C20.6,28.7,20.3,28.8,20.1,28.8z"/></g><g><path d="M22.1,14.8c-0.3,0-0.5-0.1-0.7-0.3l-2-2c-0.4-0.4-0.4-1,0-1.4s1-0.4,1.4,0l2,2c0.4,0.4,0.4,1,0,1.4    C22.6,14.7,22.4,14.8,22.1,14.8z"/></g><g><path d="M14.1,28.8c-0.3,0-0.5-0.1-0.7-0.3c-0.4-0.4-0.4-1,0-1.4l7.3-7.3l-7.3-7.3c-0.4-0.4-0.4-1,0-1.4s1-0.4,1.4,0l8,8    c0.4,0.4,0.4,1,0,1.4l-8,8C14.6,28.7,14.4,28.8,14.1,28.8z"/></g></g></svg>