<svg height="512pt" viewBox="0 -3 512 512" width="512pt" xmlns="http://www.w3.org/2000/svg"><path d="m7.519531 7.519531h387.648438v68.550781h-387.648438zm0 0" fill="#91bcee"/><path d="m371.097656 7.519531h24.070313v68.550781h-24.070313zm0 0" fill="#4890e3"/><path d="m7.519531 76.070312h387.648438v259.113282h-387.648438zm0 0" fill="#ecedef"/><path d="m371.097656 76.070312h24.070313v259.113282h-24.070313zm0 0" fill="#d0cfd1"/><path d="m279.472656 205.628906h-12.535156c0-10.027344-2.253906-19.527344-6.273438-28.023437l11.335938-5.367188c-6.316406-13.34375-16.25-24.601562-28.722656-32.550781l-6.738282 10.574219c-8.898437-5.667969-19.25-9.25-30.375-10.0625l.914063-12.507813c-1.902344-.136718-3.835937-.207031-5.746094-.207031-12.804687 0-25.507812 3.167969-36.742187 9.160156l5.902344 11.066407c-9.566407 5.105468-17.722657 12.511718-23.722657 21.480468l-10.421875-6.972656c-8.21875 12.28125-12.761718 26.597656-13.136718 41.40625l12.535156.316406c-.011719.558594-.019532 1.121094-.019532 1.683594 0 10.628906 2.527344 20.664062 7.011719 29.539062l-11.191406 5.65625c6.660156 13.183594 16.875 24.183594 29.546875 31.804688l6.464844-10.746094c9.023437 5.429688 19.457031 8.746094 30.621094 9.277344l-.589844 12.527344c1.242187.058594 2.5.085937 3.742187.085937 13.503907 0 26.816407-3.503906 38.5-10.128906l-6.1875-10.910156c9.421875-5.34375 17.390625-12.949219 23.167969-22.082031l10.597656 6.707031c7.890625-12.476563 12.0625-26.90625 12.0625-41.726563zm0 0" fill="#f45a3c"/><path d="m234.269531 205.628906c0 18.191406-14.746093 32.9375-32.9375 32.9375-18.191406 0-32.941406-14.746094-32.941406-32.9375s14.75-32.941406 32.941406-32.941406c18.191407 0 32.9375 14.75 32.9375 32.941406zm0 0" fill="#fff4f1"/><path d="m7.519531 45.722656h121.121094v30.347656h-121.121094zm0 0" fill="#2970d6"/><path d="m161.601562 45.722656h121.117188v30.347656h-121.117188zm0 0" fill="#2970d6"/><path d="m504.480469 498.910156v-45.71875c0-60.125-49.191407-109.3125-109.3125-109.3125-60.125 0-109.3125 49.191406-109.3125 109.3125v45.71875zm0 0" fill="#4890e3"/><path d="m395.167969 343.878906c-3.894531 0-7.742188.210938-11.53125.609375 54.753906 5.808594 97.777343 52.472657 97.777343 108.699219v45.722656h23.066407v-45.71875c0-60.125-49.191407-109.3125-109.3125-109.3125zm0 0" fill="#2970d6"/><path d="m459.007812 292.417969c0-41.628907-28.582031-75.375-63.839843-75.375-35.261719 0-63.84375 33.746093-63.84375 75.375 0 41.625 28.582031 75.371093 63.84375 75.371093 35.257812 0 63.839843-33.746093 63.839843-75.371093zm0 0" fill="#f0bca6"/><path d="m395.167969 217.042969c-4.117188 0-8.136719.476562-12.035157 1.355469 29.503907 6.644531 51.808594 37.25 51.808594 74.019531s-22.304687 67.367187-51.808594 74.015625c3.898438.878906 7.917969 1.355468 12.035157 1.355468 35.257812 0 63.839843-33.746093 63.839843-75.371093 0-41.628907-28.582031-75.375-63.839843-75.375zm0 0" fill="#e3ac90"/><path d="m475.214844 260.367188c-1.113282-43.265626-36.511719-78.007813-80.046875-78.007813-43.539063 0-78.9375 34.738281-80.050781 78.007813zm0 0" fill="#f9cd45"/><path d="m395.167969 182.359375c-3.917969 0-7.765625.292969-11.535157.835937 38.09375 5.496094 67.503907 37.796876 68.515626 77.171876h23.066406c-1.113282-43.265626-36.511719-78.007813-80.046875-78.007813zm0 0" fill="#f8b53c"/><path d="m375.484375 257.765625v-84.03125c0-3.585937 2.9375-6.523437 6.523437-6.523437h26.316407c3.589843 0 6.527343 2.9375 6.527343 6.523437v84.03125c0 3.589844-2.9375 6.527344-6.527343 6.527344h-26.316407c-3.585937 0-6.523437-2.9375-6.523437-6.527344zm0 0" fill="#f9e075"/><path d="m478.96875 282.480469h-167.605469c-4.964843 0-9.027343-4.0625-9.027343-9.023438v-21.316406c0-4.964844 4.0625-9.027344 9.027343-9.027344h167.605469c4.964844 0 9.027344 4.0625 9.027344 9.027344v21.316406c0 4.960938-4.0625 9.023438-9.027344 9.023438zm0 0" fill="#f9e075"/><path d="m478.96875 243.113281h-25.070312c4.964843 0 9.027343 4.0625 9.027343 9.027344v21.316406c0 4.964844-4.0625 9.023438-9.027343 9.023438h25.070312c4.964844 0 9.027344-4.058594 9.027344-9.023438v-21.316406c0-4.964844-4.0625-9.027344-9.027344-9.027344zm0 0" fill="#f9cd45"/><path d="m201.332031 246.085938c22.308594 0 40.457031-18.148438 40.457031-40.460938 0-22.308594-18.148437-40.457031-40.457031-40.457031-22.3125 0-40.460937 18.148437-40.460937 40.457031 0 22.3125 18.152344 40.460938 40.460937 40.460938zm0-65.875c14.015625 0 25.417969 11.402343 25.417969 25.417968s-11.402344 25.417969-25.417969 25.417969-25.417969-11.402344-25.417969-25.417969 11.402344-25.417968 25.417969-25.417968zm0 0"/><path d="m145.023438 158.976562-4.492188-3.011718c-1.660156-1.105469-3.691406-1.511719-5.644531-1.125-1.957031.386718-3.679688 1.535156-4.789063 3.195312-9.011718 13.46875-13.992187 29.167969-14.402344 45.398438-.105468 4.152344 3.175782 7.605468 7.328126 7.710937l5.394531.136719c.53125 7.027344 2.054687 13.851562 4.558593 20.390625l-4.820312 2.4375c-3.710938 1.871094-5.195312 6.394531-3.324219 10.101563 7.296875 14.449218 18.496094 26.503906 32.382813 34.859374 1.710937 1.03125 3.753906 1.335938 5.691406.855469s3.601562-1.710937 4.628906-3.421875l2.792969-4.640625c6.332031 2.960938 13.082031 5.007813 20.003906 6.058594l-.257812 5.40625c-.195313 4.148437 3.011719 7.671875 7.160156 7.867187 1.351563.066407 2.730469.097657 4.097656.097657 14.800781 0 29.394531-3.84375 42.210938-11.109375 1.734375-.984375 3.007812-2.617188 3.539062-4.539063s.277344-3.976562-.707031-5.714843l-2.671875-4.707032c5.6875-4.054687 10.789063-8.914062 15.113281-14.40625l4.574219 2.894532c3.507813 2.21875 8.15625 1.175781 10.375-2.335938 8.652344-13.679688 13.230469-29.5 13.230469-45.75 0-4.152344-3.371094-7.519531-7.523438-7.519531h-5.394531c-.582031-5.738281-1.835937-11.335938-3.75-16.757813l4.886719-2.3125c3.757812-1.773437 5.359375-6.257812 3.582031-10.011718-6.921875-14.628907-17.808594-26.96875-31.480469-35.679688-1.679687-1.070312-3.71875-1.433594-5.667968-1-1.945313.429688-3.644532 1.617188-4.714844 3.300781l-2.910156 4.5625c-6.253907-3.121093-12.953126-5.339843-19.839844-6.570312l.394531-5.394531c.300781-4.144532-2.8125-7.75-6.957031-8.050782-2.082032-.152344-4.199219-.226562-6.292969-.226562-14.03125 0-27.960937 3.472656-40.28125 10.046875-1.757813.9375-3.074219 2.539062-3.652344 4.445312-.582031 1.910157-.378906 3.96875.558594 5.730469l2.546875 4.773438c-5.789062 3.90625-11.011719 8.636718-15.476562 14.015624zm7.996093 14.398438c5.320313-7.949219 12.585938-14.53125 21.015625-19.027344 3.664063-1.957031 5.050782-6.511718 3.09375-10.175781l-2.171875-4.070313c7.625-3.058593 15.789063-4.785156 24.042969-5.058593l-.335938 4.613281c-.144531 1.988281.507813 3.953125 1.808594 5.460938 1.304688 1.511718 3.15625 2.441406 5.144532 2.585937 9.535156.695313 18.828124 3.773437 26.878906 8.902344 1.683594 1.070312 3.722656 1.433593 5.667968 1 1.949219-.429688 3.644532-1.617188 4.71875-3.300781l2.480469-3.898438c6.460938 5.152344 11.957031 11.382812 16.257813 18.421875l-4.175782 1.976563c-3.753906 1.777343-5.359374 6.261718-3.582031 10.015624 3.683594 7.785157 5.550781 16.132813 5.550781 24.808594 0 4.152344 3.367188 7.519532 7.523438 7.519532h4.617188c-.875 8.226562-3.179688 16.210937-6.820313 23.613281l-3.902344-2.46875c-3.511719-2.21875-8.15625-1.171875-10.375 2.335937-5.113281 8.082032-12.210937 14.847656-20.523437 19.558594-3.609375 2.050781-4.878906 6.640625-2.828125 10.253906l2.273437 4.015625c-7.546875 3.261719-15.652344 5.1875-23.90625 5.671875l.21875-4.617187c.195313-4.148438-3.007812-7.671875-7.15625-7.867188-9.554687-.453125-18.925781-3.289062-27.097656-8.207031-1.183594-.710938-2.523438-1.078125-3.878906-1.078125-.605469 0-1.21875.074219-1.816406.222656-1.933594.480469-3.601563 1.710938-4.628907 3.421875l-2.382812 3.960938c-6.585938-4.984375-12.242188-11.070313-16.722657-18l4.125-2.085938c3.707032-1.871094 5.191407-6.394531 3.320313-10.101562-4.117187-8.152344-6.203125-16.949219-6.203125-26.148438 0-.5.003906-1 .015625-1.496094.050781-1.996093-.691406-3.925781-2.066406-5.371093-1.375-1.445313-3.265625-2.289063-5.261719-2.335938l-4.617188-.117187c1.085938-8.199219 3.597657-16.121094 7.429688-23.433594l3.835938 2.570312c1.660156 1.109376 3.691406 1.515626 5.644531 1.125 1.957031-.386718 3.679687-1.539062 4.789062-3.195312zm0 0"/><path d="m447.460938 348.742188c11.820312-14.796876 19.070312-34.59375 19.070312-56.324219 0-.808594-.015625-1.613281-.035156-2.414063h12.472656c9.125 0 16.546875-7.425781 16.546875-16.546875v-21.316406c0-9.125-7.421875-16.546875-16.546875-16.546875h-.410156c-4.3125-13.4375-11.84375-25.71875-22.203125-35.835938-9.75-9.523437-21.363281-16.480468-33.984375-20.589843v-5.433594c0-7.742187-6.300782-14.046875-14.046875-14.046875h-5.636719v-152.167969c0-4.152343-3.367188-7.519531-7.519531-7.519531h-387.648438c-4.152343 0-7.519531 3.367188-7.519531 7.519531v327.664063c0 4.152344 3.367188 7.523437 7.519531 7.523437h46.132813c4.15625 0 7.523437-3.371093 7.523437-7.523437s-3.367187-7.519532-7.523437-7.519532h-38.609375v-244.074218h372.601562v76.097656h-5.636719c-7.742187 0-14.046874 6.300781-14.046874 14.046875v5.410156c-12.625 4.109375-24.230469 11.089844-33.980469 20.613281-10.359375 10.117188-17.894531 22.394532-22.207031 35.835938h-.410157c-9.125 0-16.546875 7.421875-16.546875 16.546875v21.316406c0 9.121094 7.421875 16.546875 16.546875 16.546875h12.476563c-.023438.800782-.039063 1.605469-.039063 2.414063 0 12.597656 2.445313 24.542969 6.792969 35.246093h-243.65625c-4.152344 0-7.519531 3.367188-7.519531 7.519532s3.367187 7.523437 7.519531 7.523437h251.550781c1.398438 2.117188 2.882813 4.160157 4.449219 6.113281-7.5625 3.792969-14.742188 8.390626-21.367188 13.789063-20.472656 16.679687-34.855468 39.933594-40.503906 65.472656-.894531 4.054688 1.664063 8.070313 5.71875 8.96875 4.054688.894531 8.070313-1.664062 8.96875-5.722656 7.121094-32.199219 29.503906-58.242187 58.402344-71.132813 11.613281 9.507813 25.753906 15.113282 41.011719 15.113282 15.300781 0 29.484375-5.640625 41.117187-15.203125 35.699219 15.828125 60.671875 51.585937 60.671875 93.082031v38.203125h-203.582031v-31.542969c0-4.15625-3.367188-7.523437-7.519531-7.523437-4.15625 0-7.523438 3.367187-7.523438 7.523437v39.0625c0 4.15625 3.367188 7.523438 7.523438 7.523438h218.625c4.152343 0 7.519531-3.367188 7.519531-7.523438v-45.71875c0-45.632812-26.304688-85.226562-64.539062-104.449218zm-326.34375-280.191407h-106.074219v-15.308593h106.074219zm154.082031 0h-106.078125v-15.308593h106.078125zm15.039062 0v-22.828125c0-4.152344-3.367187-7.519531-7.519531-7.519531h-121.117188c-4.15625 0-7.523437 3.367187-7.523437 7.519531v22.828125h-17.917969v-22.828125c0-4.152344-3.367187-7.519531-7.519531-7.519531h-113.597656v-23.160156h372.601562v53.507812zm155.605469 141.96875c7.382812 7.207031 13.03125 15.742188 16.742188 25.074219h-40.214844v-40.417969c8.648437 3.492188 16.617187 8.648438 23.472656 15.34375zm-38.515625-35.789062v60.863281h-24.324219v-60.863281zm-62.839844 35.789062c6.855469-6.699219 14.824219-11.871093 23.472657-15.367187v40.441406h-40.214844c3.710937-9.332031 9.359375-17.867188 16.742187-25.074219zm-34.628906 62.9375v-21.320312c0-.8125.6875-1.503907 1.503906-1.503907h167.605469c.816406 0 1.503906.691407 1.503906 1.503907v21.320312c0 .8125-.6875 1.503907-1.503906 1.503907h-167.605469c-.816406 0-1.503906-.691407-1.503906-1.503907zm28.984375 18.960938c0-.808594.019531-1.613281.039062-2.414063h112.566407c.023437.800782.039062 1.605469.039062 2.414063 0 37.414062-25.265625 67.851562-56.324219 67.851562-31.054687 0-56.320312-30.441406-56.320312-67.851562zm0 0"/></svg>